<?xml version="1.0" standalone="no"?><!DOCTYPE svg PUBLIC "-//W3C//DTD SVG 1.1//EN" "http://www.w3.org/Graphics/SVG/1.1/DTD/svg11.dtd"><svg t="1520418560239" class="icon" style="" viewBox="0 0 1024 1024" version="1.1" xmlns="http://www.w3.org/2000/svg" p-id="1960" xmlns:xlink="http://www.w3.org/1999/xlink" width="200" height="200"><defs><style type="text/css"></style></defs><path d="M416.1 320.83h354.56v30H416.1zM217.93 320.83h121.64v30H217.93z" fill="#2828E0" p-id="1961"></path><path d="M371 410.32a50.77 50.77 0 0 1-50.72-50.72v-56.12a50.72 50.72 0 0 1 101.43 0v56.12A50.77 50.77 0 0 1 371 410.32z m0-127.55a20.74 20.74 0 0 0-20.72 20.71v56.12A20.74 20.74 0 0 0 371 380.32a20.74 20.74 0 0 0 20.71-20.72v-56.12A20.74 20.74 0 0 0 371 282.77z" fill="#DD3438" p-id="1962"></path><path d="M652.28 496.66h119.66v30H652.28zM216.38 496.66h361.65v30H216.38z" fill="#2828E0" p-id="1963"></path><path d="M613.63 586.14a50.77 50.77 0 0 1-50.72-50.72V479.3a50.72 50.72 0 1 1 101.43 0v56.12a50.77 50.77 0 0 1-50.71 50.72z m0-127.55a20.74 20.74 0 0 0-20.72 20.72v56.12a20.72 20.72 0 0 0 41.43 0V479.3a20.74 20.74 0 0 0-20.71-20.71z" fill="#DD3438" p-id="1964"></path><path d="M513.21 672.48h257.23v30H513.21zM220.97 672.48h209.82v30H220.97z" fill="#2828E0" p-id="1965"></path><path d="M477.34 762a50.77 50.77 0 0 1-50.72-50.72v-56.15a50.72 50.72 0 0 1 101.43 0v56.12A50.77 50.77 0 0 1 477.34 762z m0-127.55a20.74 20.74 0 0 0-20.72 20.72v56.12a20.72 20.72 0 0 0 41.43 0v-56.16a20.74 20.74 0 0 0-20.71-20.72z" fill="#DD3438" p-id="1966"></path></svg>