<?xml version="1.0" standalone="no"?><!DOCTYPE svg PUBLIC "-//W3C//DTD SVG 1.1//EN" "http://www.w3.org/Graphics/SVG/1.1/DTD/svg11.dtd"><svg t="1520418589810" class="icon" style="" viewBox="0 0 1024 1024" version="1.1" xmlns="http://www.w3.org/2000/svg" p-id="2078" xmlns:xlink="http://www.w3.org/1999/xlink" width="200" height="200"><defs><style type="text/css"></style></defs><path d="M542.6 780.31a286.95 286.95 0 0 1-286.94-286.95c0-49.56 8.13-88.45 25.57-122.39 17.21-33.48 43.21-61.53 81.82-88.3a15 15 0 0 1 17.09 24.66c-68 47.14-94.48 99.29-94.48 186A256.94 256.94 0 0 0 542.6 750.31c70.35 0 130.4-21.82 173.65-63.09 43.65-41.65 66.72-100.1 66.72-169a15 15 0 0 1 30 0c0 77.33-26.28 143.29-76 190.74-24.11 23-53 40.83-85.9 53-33.13 12.15-69.62 18.35-108.47 18.35z" fill="#F0F0FF" p-id="2079"></path><path d="M526 805.12A287 287 0 0 1 362.72 282.2l17.09 24.66A257 257 0 1 0 783 518.18h30a286.94 286.94 0 0 1-287 286.94z" fill="#2828E0" p-id="2080"></path><path d="M778.59 518.18h-30a220.66 220.66 0 0 0-44.41-133.43 224.43 224.43 0 0 0-112.62-79.34l8.82-28.67a254.65 254.65 0 0 1 127.8 90 250.44 250.44 0 0 1 50.41 151.44z" fill="#DD3438" p-id="2081"></path><path d="M394.92 338.3l-17.69-24.23a253.08 253.08 0 0 1 223.15-37.33l-8.82 28.67a223.08 223.08 0 0 0-196.64 32.89z" fill="#F9C112" p-id="2082"></path><path d="M497.986 524.193l95.643-249.42 28.012 10.74-95.644 249.421z" fill="#DD3438" p-id="2083"></path><path d="M511.71 544a15 15 0 0 1-12.88-7.3l-140.1-234a15 15 0 0 1 25.74-15.41l140.1 234A15 15 0 0 1 511.71 544z" fill="#2828E0" p-id="2084"></path><path d="M512 544.59a15 15 0 0 1-0.59-30l286-11.41a15 15 0 0 1 1.2 30l-286 11.41z" fill="#2828E0" p-id="2085"></path></svg>